<mxfile host="Electron" agent="Mozilla/5.0 (Windows NT 10.0; Win64; x64) AppleWebKit/537.36 (KHTML, like Gecko) draw.io/26.0.16 Chrome/132.0.6834.196 Electron/34.2.0 Safari/537.36" version="26.0.16">
  <diagram name="Page-1" id="03018318-947c-dd8e-b7a3-06fadd420f32">
    <mxGraphModel dx="3764" dy="1747" grid="1" gridSize="10" guides="1" tooltips="1" connect="1" arrows="1" fold="1" page="1" pageScale="1" pageWidth="1100" pageHeight="850" background="#ffffff" math="0" shadow="0">
      <root>
        <mxCell id="0" />
        <mxCell id="1" parent="0" />
        <mxCell id="At87MqKCxzJQ_d1da1c6-35" value="Main Menu Screen" style="shape=note;whiteSpace=wrap;html=1;backgroundOutline=1;fontColor=#000000;darkOpacity=0.05;fillColor=#FFF9B2;strokeColor=none;fillStyle=solid;direction=west;gradientDirection=north;gradientColor=#FFF2A1;shadow=1;size=20;pointerEvents=1;fontFamily=Garamond;" parent="1" vertex="1">
          <mxGeometry x="-878" y="-815.5" width="120" height="50" as="geometry" />
        </mxCell>
        <mxCell id="At87MqKCxzJQ_d1da1c6-43" value="Game Over Dialogue" style="shape=note;whiteSpace=wrap;html=1;backgroundOutline=1;fontColor=#000000;darkOpacity=0.05;fillColor=#FFF9B2;strokeColor=none;fillStyle=solid;direction=west;gradientDirection=north;gradientColor=#FFF2A1;shadow=1;size=20;pointerEvents=1;fontFamily=Garamond;" parent="1" vertex="1">
          <mxGeometry x="912" y="-394.5" width="135" height="50" as="geometry" />
        </mxCell>
        <mxCell id="At87MqKCxzJQ_d1da1c6-82" value="" style="swimlane;startSize=0;rounded=0;shadow=0;comic=1;strokeColor=default;strokeWidth=1;align=center;verticalAlign=middle;fontFamily=Garamond;fontSize=12;fontColor=default;labelBackgroundColor=none;fillColor=default;fillStyle=solid;gradientColor=none;" parent="1" vertex="1">
          <mxGeometry x="-1310" y="-743" width="1024.0000000000005" height="720" as="geometry" />
        </mxCell>
        <mxCell id="tLbkFWNEcpFi5JFSRH8S-7" value="" style="rounded=0;whiteSpace=wrap;html=1;fontFamily=Garamond;" vertex="1" parent="At87MqKCxzJQ_d1da1c6-82">
          <mxGeometry x="4.547473508864641e-13" width="1024" height="720" as="geometry" />
        </mxCell>
        <mxCell id="tLbkFWNEcpFi5JFSRH8S-8" value="" style="curved=1;endArrow=none;html=1;rounded=0;strokeWidth=5;startFill=0;exitX=0;exitY=1;exitDx=0;exitDy=0;entryX=0.75;entryY=1;entryDx=0;entryDy=0;fontFamily=Garamond;" edge="1" source="tLbkFWNEcpFi5JFSRH8S-7" target="tLbkFWNEcpFi5JFSRH8S-7" parent="At87MqKCxzJQ_d1da1c6-82">
          <mxGeometry width="50" height="50" relative="1" as="geometry">
            <mxPoint x="140.00000000000045" y="510" as="sourcePoint" />
            <mxPoint x="190.00000000000045" y="460" as="targetPoint" />
            <Array as="points">
              <mxPoint x="110.00000000000045" y="470" />
              <mxPoint x="270.00000000000045" y="390" />
            </Array>
          </mxGeometry>
        </mxCell>
        <mxCell id="tLbkFWNEcpFi5JFSRH8S-9" value="" style="ellipse;whiteSpace=wrap;html=1;aspect=fixed;fillColor=#000000;fontFamily=Garamond;" vertex="1" parent="At87MqKCxzJQ_d1da1c6-82">
          <mxGeometry x="120.00000000000045" y="175" width="80" height="80" as="geometry" />
        </mxCell>
        <mxCell id="tLbkFWNEcpFi5JFSRH8S-10" value="" style="curved=1;endArrow=none;html=1;rounded=0;strokeWidth=5;startFill=0;entryX=1;entryY=1;entryDx=0;entryDy=0;fontFamily=Garamond;" edge="1" target="tLbkFWNEcpFi5JFSRH8S-7" parent="At87MqKCxzJQ_d1da1c6-82">
          <mxGeometry width="50" height="50" relative="1" as="geometry">
            <mxPoint x="350.00000000000045" y="470" as="sourcePoint" />
            <mxPoint x="890.0000000000005" y="620" as="targetPoint" />
            <Array as="points">
              <mxPoint x="500.00000000000045" y="350" />
              <mxPoint x="770.0000000000005" y="490" />
            </Array>
          </mxGeometry>
        </mxCell>
        <mxCell id="xJIP0SkDgu_qtOtY-LIs-1" value="UNTITLED DANMAKU (GAME TITLE)" style="text;html=1;align=center;verticalAlign=middle;resizable=0;points=[];autosize=1;strokeColor=none;fillColor=none;fontFamily=Garamond;fontStyle=1;fontSize=36;" parent="At87MqKCxzJQ_d1da1c6-82" vertex="1">
          <mxGeometry x="187" y="130" width="650" height="60" as="geometry" />
        </mxCell>
        <mxCell id="tLbkFWNEcpFi5JFSRH8S-12" value="START GAME" style="labelPosition=center;verticalLabelPosition=middle;align=center;html=1;shape=mxgraph.basic.button;dx=4.47;whiteSpace=wrap;shadow=1;fontFamily=Garamond;fontStyle=1;fontSize=20;" vertex="1" parent="At87MqKCxzJQ_d1da1c6-82">
          <mxGeometry x="432" y="285" width="160" height="40" as="geometry" />
        </mxCell>
        <mxCell id="tLbkFWNEcpFi5JFSRH8S-15" value="HIGHSCORES" style="labelPosition=center;verticalLabelPosition=middle;align=center;html=1;shape=mxgraph.basic.button;dx=4.47;whiteSpace=wrap;shadow=1;fontFamily=Garamond;fontStyle=1;fontSize=20;" vertex="1" parent="At87MqKCxzJQ_d1da1c6-82">
          <mxGeometry x="432" y="345" width="160" height="40" as="geometry" />
        </mxCell>
        <mxCell id="tLbkFWNEcpFi5JFSRH8S-16" value="HOW TO PLAY" style="labelPosition=center;verticalLabelPosition=middle;align=center;html=1;shape=mxgraph.basic.button;dx=4.47;whiteSpace=wrap;shadow=1;fontFamily=Garamond;fontStyle=1;fontSize=20;" vertex="1" parent="At87MqKCxzJQ_d1da1c6-82">
          <mxGeometry x="432" y="405" width="160" height="40" as="geometry" />
        </mxCell>
        <mxCell id="tLbkFWNEcpFi5JFSRH8S-17" value="SETTINGS" style="labelPosition=center;verticalLabelPosition=middle;align=center;html=1;shape=mxgraph.basic.button;dx=4.47;whiteSpace=wrap;shadow=1;fontFamily=Garamond;fontStyle=1;fontSize=20;" vertex="1" parent="At87MqKCxzJQ_d1da1c6-82">
          <mxGeometry x="432" y="465" width="160" height="40" as="geometry" />
        </mxCell>
        <mxCell id="tLbkFWNEcpFi5JFSRH8S-18" value="EXIT&amp;nbsp;&lt;span style=&quot;background-color: transparent; color: light-dark(rgb(0, 0, 0), rgb(255, 255, 255));&quot;&gt;GAME&lt;/span&gt;" style="labelPosition=center;verticalLabelPosition=middle;align=center;html=1;shape=mxgraph.basic.button;dx=4.47;whiteSpace=wrap;shadow=1;fontFamily=Garamond;fontStyle=1;fontSize=20;" vertex="1" parent="At87MqKCxzJQ_d1da1c6-82">
          <mxGeometry x="432" y="525" width="160" height="40" as="geometry" />
        </mxCell>
        <mxCell id="At87MqKCxzJQ_d1da1c6-77" style="edgeStyle=orthogonalEdgeStyle;rounded=0;orthogonalLoop=1;jettySize=auto;html=1;fontFamily=Garamond;fontSize=12;fontColor=default;labelBackgroundColor=none;elbow=vertical;curved=1;dashed=1;endSize=10;shadow=1;" parent="1" source="tLbkFWNEcpFi5JFSRH8S-12" target="At87MqKCxzJQ_d1da1c6-84" edge="1">
          <mxGeometry relative="1" as="geometry">
            <mxPoint x="1182" y="-64.5" as="targetPoint" />
          </mxGeometry>
        </mxCell>
        <mxCell id="At87MqKCxzJQ_d1da1c6-84" value="" style="swimlane;startSize=0;rounded=0;shadow=0;comic=1;strokeColor=default;strokeWidth=1;align=center;verticalAlign=middle;fontFamily=Garamond;fontSize=12;fontColor=default;labelBackgroundColor=none;fillColor=default;fillStyle=solid;gradientColor=none;" parent="1" vertex="1">
          <mxGeometry x="-210" y="-754.5" width="1024" height="720" as="geometry" />
        </mxCell>
        <mxCell id="At87MqKCxzJQ_d1da1c6-92" value="" style="swimlane;startSize=0;rounded=0;shadow=0;comic=1;strokeColor=default;strokeWidth=1;align=center;verticalAlign=middle;fontFamily=Garamond;fontSize=12;fontColor=default;labelBackgroundColor=none;fillColor=none;" parent="At87MqKCxzJQ_d1da1c6-84" vertex="1">
          <mxGeometry x="2" width="720" height="720" as="geometry" />
        </mxCell>
        <mxCell id="tLbkFWNEcpFi5JFSRH8S-163" value="" style="rounded=0;whiteSpace=wrap;html=1;" vertex="1" parent="At87MqKCxzJQ_d1da1c6-92">
          <mxGeometry width="720" height="720" as="geometry" />
        </mxCell>
        <mxCell id="tLbkFWNEcpFi5JFSRH8S-164" value="" style="curved=1;endArrow=none;html=1;rounded=0;strokeWidth=5;startFill=0;exitX=0;exitY=1;exitDx=0;exitDy=0;entryX=0.75;entryY=1;entryDx=0;entryDy=0;" edge="1" source="tLbkFWNEcpFi5JFSRH8S-163" target="tLbkFWNEcpFi5JFSRH8S-163" parent="At87MqKCxzJQ_d1da1c6-92">
          <mxGeometry width="50" height="50" relative="1" as="geometry">
            <mxPoint x="138.00000000000045" y="510" as="sourcePoint" />
            <mxPoint x="188.00000000000045" y="460" as="targetPoint" />
            <Array as="points">
              <mxPoint x="108.00000000000045" y="470" />
              <mxPoint x="262" y="520" />
            </Array>
          </mxGeometry>
        </mxCell>
        <mxCell id="tLbkFWNEcpFi5JFSRH8S-165" value="" style="ellipse;whiteSpace=wrap;html=1;aspect=fixed;fillColor=#000000;" vertex="1" parent="At87MqKCxzJQ_d1da1c6-92">
          <mxGeometry x="118.00000000000045" y="175" width="80" height="80" as="geometry" />
        </mxCell>
        <mxCell id="tLbkFWNEcpFi5JFSRH8S-166" value="" style="curved=1;endArrow=none;html=1;rounded=0;strokeWidth=5;startFill=0;entryX=1;entryY=1;entryDx=0;entryDy=0;" edge="1" target="tLbkFWNEcpFi5JFSRH8S-163" parent="At87MqKCxzJQ_d1da1c6-92">
          <mxGeometry width="50" height="50" relative="1" as="geometry">
            <mxPoint x="348.00000000000045" y="470" as="sourcePoint" />
            <mxPoint x="888.0000000000005" y="620" as="targetPoint" />
            <Array as="points">
              <mxPoint x="372" y="450" />
              <mxPoint x="462" y="500" />
              <mxPoint x="542" y="570" />
            </Array>
          </mxGeometry>
        </mxCell>
        <mxCell id="tLbkFWNEcpFi5JFSRH8S-22" value="Player" style="shape=umlActor;verticalLabelPosition=bottom;verticalAlign=top;html=1;outlineConnect=0;fontFamily=Garamond;" vertex="1" parent="At87MqKCxzJQ_d1da1c6-92">
          <mxGeometry x="515" y="630" width="30" height="60" as="geometry" />
        </mxCell>
        <mxCell id="tLbkFWNEcpFi5JFSRH8S-23" value="Boss" style="shape=umlActor;verticalLabelPosition=bottom;verticalAlign=top;html=1;outlineConnect=0;fontFamily=Garamond;" vertex="1" parent="At87MqKCxzJQ_d1da1c6-92">
          <mxGeometry x="318" y="40" width="64" height="128" as="geometry" />
        </mxCell>
        <mxCell id="tLbkFWNEcpFi5JFSRH8S-28" value="" style="ellipse;whiteSpace=wrap;html=1;aspect=fixed;fontFamily=Garamond;" vertex="1" parent="At87MqKCxzJQ_d1da1c6-92">
          <mxGeometry x="245" y="250" width="10" height="10" as="geometry" />
        </mxCell>
        <mxCell id="tLbkFWNEcpFi5JFSRH8S-30" value="" style="ellipse;whiteSpace=wrap;html=1;aspect=fixed;fontFamily=Garamond;" vertex="1" parent="At87MqKCxzJQ_d1da1c6-92">
          <mxGeometry x="255" y="260" width="10" height="10" as="geometry" />
        </mxCell>
        <mxCell id="tLbkFWNEcpFi5JFSRH8S-31" value="" style="ellipse;whiteSpace=wrap;html=1;aspect=fixed;fontFamily=Garamond;" vertex="1" parent="At87MqKCxzJQ_d1da1c6-92">
          <mxGeometry x="265" y="270" width="10" height="10" as="geometry" />
        </mxCell>
        <mxCell id="tLbkFWNEcpFi5JFSRH8S-32" value="" style="ellipse;whiteSpace=wrap;html=1;aspect=fixed;fontFamily=Garamond;" vertex="1" parent="At87MqKCxzJQ_d1da1c6-92">
          <mxGeometry x="275" y="280" width="10" height="10" as="geometry" />
        </mxCell>
        <mxCell id="tLbkFWNEcpFi5JFSRH8S-33" value="" style="ellipse;whiteSpace=wrap;html=1;aspect=fixed;fontFamily=Garamond;" vertex="1" parent="At87MqKCxzJQ_d1da1c6-92">
          <mxGeometry x="285" y="290" width="10" height="10" as="geometry" />
        </mxCell>
        <mxCell id="tLbkFWNEcpFi5JFSRH8S-34" value="" style="ellipse;whiteSpace=wrap;html=1;aspect=fixed;fontFamily=Garamond;" vertex="1" parent="At87MqKCxzJQ_d1da1c6-92">
          <mxGeometry x="295" y="300" width="10" height="10" as="geometry" />
        </mxCell>
        <mxCell id="tLbkFWNEcpFi5JFSRH8S-35" value="" style="ellipse;whiteSpace=wrap;html=1;aspect=fixed;fontFamily=Garamond;" vertex="1" parent="At87MqKCxzJQ_d1da1c6-92">
          <mxGeometry x="305" y="310" width="10" height="10" as="geometry" />
        </mxCell>
        <mxCell id="tLbkFWNEcpFi5JFSRH8S-36" value="" style="ellipse;whiteSpace=wrap;html=1;aspect=fixed;fontFamily=Garamond;" vertex="1" parent="At87MqKCxzJQ_d1da1c6-92">
          <mxGeometry x="315" y="320" width="10" height="10" as="geometry" />
        </mxCell>
        <mxCell id="tLbkFWNEcpFi5JFSRH8S-37" value="" style="ellipse;whiteSpace=wrap;html=1;aspect=fixed;fontFamily=Garamond;" vertex="1" parent="At87MqKCxzJQ_d1da1c6-92">
          <mxGeometry x="325" y="330" width="10" height="10" as="geometry" />
        </mxCell>
        <mxCell id="tLbkFWNEcpFi5JFSRH8S-38" value="" style="ellipse;whiteSpace=wrap;html=1;aspect=fixed;fontFamily=Garamond;" vertex="1" parent="At87MqKCxzJQ_d1da1c6-92">
          <mxGeometry x="335" y="340" width="10" height="10" as="geometry" />
        </mxCell>
        <mxCell id="tLbkFWNEcpFi5JFSRH8S-39" value="" style="ellipse;whiteSpace=wrap;html=1;aspect=fixed;fontFamily=Garamond;" vertex="1" parent="At87MqKCxzJQ_d1da1c6-92">
          <mxGeometry x="345" y="350" width="10" height="10" as="geometry" />
        </mxCell>
        <mxCell id="tLbkFWNEcpFi5JFSRH8S-40" value="" style="ellipse;whiteSpace=wrap;html=1;aspect=fixed;fontFamily=Garamond;" vertex="1" parent="At87MqKCxzJQ_d1da1c6-92">
          <mxGeometry x="355" y="340" width="10" height="10" as="geometry" />
        </mxCell>
        <mxCell id="tLbkFWNEcpFi5JFSRH8S-41" value="" style="ellipse;whiteSpace=wrap;html=1;aspect=fixed;fontFamily=Garamond;" vertex="1" parent="At87MqKCxzJQ_d1da1c6-92">
          <mxGeometry x="365" y="330" width="10" height="10" as="geometry" />
        </mxCell>
        <mxCell id="tLbkFWNEcpFi5JFSRH8S-42" value="" style="ellipse;whiteSpace=wrap;html=1;aspect=fixed;fontFamily=Garamond;" vertex="1" parent="At87MqKCxzJQ_d1da1c6-92">
          <mxGeometry x="375" y="320" width="10" height="10" as="geometry" />
        </mxCell>
        <mxCell id="tLbkFWNEcpFi5JFSRH8S-43" value="" style="ellipse;whiteSpace=wrap;html=1;aspect=fixed;fontFamily=Garamond;" vertex="1" parent="At87MqKCxzJQ_d1da1c6-92">
          <mxGeometry x="385" y="310" width="10" height="10" as="geometry" />
        </mxCell>
        <mxCell id="tLbkFWNEcpFi5JFSRH8S-44" value="" style="ellipse;whiteSpace=wrap;html=1;aspect=fixed;fontFamily=Garamond;" vertex="1" parent="At87MqKCxzJQ_d1da1c6-92">
          <mxGeometry x="395" y="300" width="10" height="10" as="geometry" />
        </mxCell>
        <mxCell id="tLbkFWNEcpFi5JFSRH8S-45" value="" style="ellipse;whiteSpace=wrap;html=1;aspect=fixed;fontFamily=Garamond;" vertex="1" parent="At87MqKCxzJQ_d1da1c6-92">
          <mxGeometry x="405" y="290" width="10" height="10" as="geometry" />
        </mxCell>
        <mxCell id="tLbkFWNEcpFi5JFSRH8S-46" value="" style="ellipse;whiteSpace=wrap;html=1;aspect=fixed;fontFamily=Garamond;" vertex="1" parent="At87MqKCxzJQ_d1da1c6-92">
          <mxGeometry x="415" y="280" width="10" height="10" as="geometry" />
        </mxCell>
        <mxCell id="tLbkFWNEcpFi5JFSRH8S-47" value="" style="ellipse;whiteSpace=wrap;html=1;aspect=fixed;fontFamily=Garamond;" vertex="1" parent="At87MqKCxzJQ_d1da1c6-92">
          <mxGeometry x="425" y="270" width="10" height="10" as="geometry" />
        </mxCell>
        <mxCell id="tLbkFWNEcpFi5JFSRH8S-50" value="" style="ellipse;whiteSpace=wrap;html=1;aspect=fixed;fontFamily=Garamond;" vertex="1" parent="At87MqKCxzJQ_d1da1c6-92">
          <mxGeometry x="445" y="250" width="10" height="10" as="geometry" />
        </mxCell>
        <mxCell id="tLbkFWNEcpFi5JFSRH8S-49" value="" style="ellipse;whiteSpace=wrap;html=1;aspect=fixed;fontFamily=Garamond;" vertex="1" parent="At87MqKCxzJQ_d1da1c6-92">
          <mxGeometry x="435" y="260" width="10" height="10" as="geometry" />
        </mxCell>
        <mxCell id="tLbkFWNEcpFi5JFSRH8S-51" value="Enemy Bullets" style="text;html=1;align=center;verticalAlign=middle;whiteSpace=wrap;rounded=0;fontFamily=Garamond;" vertex="1" parent="At87MqKCxzJQ_d1da1c6-92">
          <mxGeometry x="320" y="270" width="60" height="30" as="geometry" />
        </mxCell>
        <mxCell id="tLbkFWNEcpFi5JFSRH8S-53" value="" style="verticalLabelPosition=bottom;verticalAlign=top;html=1;shape=mxgraph.basic.diag_stripe;dx=222.5;fontFamily=Garamond;" vertex="1" parent="At87MqKCxzJQ_d1da1c6-92">
          <mxGeometry x="170" y="125" width="550" height="600" as="geometry" />
        </mxCell>
        <mxCell id="tLbkFWNEcpFi5JFSRH8S-54" value="Lasers" style="text;html=1;align=center;verticalAlign=middle;whiteSpace=wrap;rounded=0;fontFamily=Garamond;" vertex="1" parent="At87MqKCxzJQ_d1da1c6-92">
          <mxGeometry x="572" y="310" width="60" height="30" as="geometry" />
        </mxCell>
        <mxCell id="tLbkFWNEcpFi5JFSRH8S-55" value="" style="verticalLabelPosition=bottom;verticalAlign=top;html=1;shape=mxgraph.basic.diag_stripe;dx=222.5;fontFamily=Garamond;" vertex="1" parent="At87MqKCxzJQ_d1da1c6-92">
          <mxGeometry x="110" y="60" width="607.5" height="660" as="geometry" />
        </mxCell>
        <mxCell id="tLbkFWNEcpFi5JFSRH8S-56" value="" style="ellipse;whiteSpace=wrap;html=1;aspect=fixed;fontFamily=Garamond;" vertex="1" parent="At87MqKCxzJQ_d1da1c6-92">
          <mxGeometry x="510" y="610" width="10" height="10" as="geometry" />
        </mxCell>
        <mxCell id="tLbkFWNEcpFi5JFSRH8S-57" value="" style="ellipse;whiteSpace=wrap;html=1;aspect=fixed;fontFamily=Garamond;" vertex="1" parent="At87MqKCxzJQ_d1da1c6-92">
          <mxGeometry x="500" y="590" width="10" height="10" as="geometry" />
        </mxCell>
        <mxCell id="tLbkFWNEcpFi5JFSRH8S-58" value="" style="ellipse;whiteSpace=wrap;html=1;aspect=fixed;fontFamily=Garamond;" vertex="1" parent="At87MqKCxzJQ_d1da1c6-92">
          <mxGeometry x="485" y="570" width="10" height="10" as="geometry" />
        </mxCell>
        <mxCell id="tLbkFWNEcpFi5JFSRH8S-59" value="" style="ellipse;whiteSpace=wrap;html=1;aspect=fixed;fontFamily=Garamond;" vertex="1" parent="At87MqKCxzJQ_d1da1c6-92">
          <mxGeometry x="470" y="550" width="10" height="10" as="geometry" />
        </mxCell>
        <mxCell id="tLbkFWNEcpFi5JFSRH8S-60" value="" style="ellipse;whiteSpace=wrap;html=1;aspect=fixed;fontFamily=Garamond;" vertex="1" parent="At87MqKCxzJQ_d1da1c6-92">
          <mxGeometry x="455" y="532.5" width="10" height="10" as="geometry" />
        </mxCell>
        <mxCell id="tLbkFWNEcpFi5JFSRH8S-61" value="(Player)&lt;div&gt;Bullets&lt;/div&gt;" style="text;html=1;align=center;verticalAlign=middle;whiteSpace=wrap;rounded=0;fontFamily=Garamond;" vertex="1" parent="At87MqKCxzJQ_d1da1c6-92">
          <mxGeometry x="435" y="580" width="60" height="30" as="geometry" />
        </mxCell>
        <mxCell id="tLbkFWNEcpFi5JFSRH8S-62" value="&lt;div&gt;Common&lt;/div&gt;&lt;div&gt;Enemy&lt;/div&gt;" style="shape=umlActor;verticalLabelPosition=bottom;verticalAlign=top;html=1;outlineConnect=0;fontFamily=Garamond;" vertex="1" parent="At87MqKCxzJQ_d1da1c6-92">
          <mxGeometry x="40" y="260" width="30" height="60" as="geometry" />
        </mxCell>
        <mxCell id="tLbkFWNEcpFi5JFSRH8S-64" value="&lt;div&gt;Common&lt;/div&gt;&lt;div&gt;Enemy&lt;/div&gt;" style="shape=umlActor;verticalLabelPosition=bottom;verticalAlign=top;html=1;outlineConnect=0;fontFamily=Garamond;" vertex="1" parent="At87MqKCxzJQ_d1da1c6-92">
          <mxGeometry x="110" y="250" width="30" height="60" as="geometry" />
        </mxCell>
        <mxCell id="tLbkFWNEcpFi5JFSRH8S-66" value="" style="ellipse;whiteSpace=wrap;html=1;aspect=fixed;fontFamily=Garamond;" vertex="1" parent="At87MqKCxzJQ_d1da1c6-92">
          <mxGeometry x="80" y="365" width="10" height="10" as="geometry" />
        </mxCell>
        <mxCell id="tLbkFWNEcpFi5JFSRH8S-67" value="" style="ellipse;whiteSpace=wrap;html=1;aspect=fixed;fontFamily=Garamond;" vertex="1" parent="At87MqKCxzJQ_d1da1c6-92">
          <mxGeometry x="90" y="375" width="10" height="10" as="geometry" />
        </mxCell>
        <mxCell id="tLbkFWNEcpFi5JFSRH8S-68" value="" style="ellipse;whiteSpace=wrap;html=1;aspect=fixed;fontFamily=Garamond;" vertex="1" parent="At87MqKCxzJQ_d1da1c6-92">
          <mxGeometry x="100" y="385" width="10" height="10" as="geometry" />
        </mxCell>
        <mxCell id="tLbkFWNEcpFi5JFSRH8S-69" value="" style="ellipse;whiteSpace=wrap;html=1;aspect=fixed;fontFamily=Garamond;" vertex="1" parent="At87MqKCxzJQ_d1da1c6-92">
          <mxGeometry x="110" y="395" width="10" height="10" as="geometry" />
        </mxCell>
        <mxCell id="tLbkFWNEcpFi5JFSRH8S-70" value="" style="ellipse;whiteSpace=wrap;html=1;aspect=fixed;fontFamily=Garamond;" vertex="1" parent="At87MqKCxzJQ_d1da1c6-92">
          <mxGeometry x="120" y="405" width="10" height="10" as="geometry" />
        </mxCell>
        <mxCell id="tLbkFWNEcpFi5JFSRH8S-71" value="" style="ellipse;whiteSpace=wrap;html=1;aspect=fixed;fontFamily=Garamond;" vertex="1" parent="At87MqKCxzJQ_d1da1c6-92">
          <mxGeometry x="130" y="415" width="10" height="10" as="geometry" />
        </mxCell>
        <mxCell id="tLbkFWNEcpFi5JFSRH8S-72" value="" style="ellipse;whiteSpace=wrap;html=1;aspect=fixed;fontFamily=Garamond;" vertex="1" parent="At87MqKCxzJQ_d1da1c6-92">
          <mxGeometry x="140" y="425" width="10" height="10" as="geometry" />
        </mxCell>
        <mxCell id="tLbkFWNEcpFi5JFSRH8S-73" value="" style="ellipse;whiteSpace=wrap;html=1;aspect=fixed;fontFamily=Garamond;" vertex="1" parent="At87MqKCxzJQ_d1da1c6-92">
          <mxGeometry x="150" y="435" width="10" height="10" as="geometry" />
        </mxCell>
        <mxCell id="tLbkFWNEcpFi5JFSRH8S-74" value="" style="ellipse;whiteSpace=wrap;html=1;aspect=fixed;fontFamily=Garamond;" vertex="1" parent="At87MqKCxzJQ_d1da1c6-92">
          <mxGeometry x="160" y="445" width="10" height="10" as="geometry" />
        </mxCell>
        <mxCell id="tLbkFWNEcpFi5JFSRH8S-75" value="" style="ellipse;whiteSpace=wrap;html=1;aspect=fixed;fontFamily=Garamond;" vertex="1" parent="At87MqKCxzJQ_d1da1c6-92">
          <mxGeometry x="170" y="455" width="10" height="10" as="geometry" />
        </mxCell>
        <mxCell id="tLbkFWNEcpFi5JFSRH8S-76" value="" style="ellipse;whiteSpace=wrap;html=1;aspect=fixed;fontFamily=Garamond;" vertex="1" parent="At87MqKCxzJQ_d1da1c6-92">
          <mxGeometry x="180" y="465" width="10" height="10" as="geometry" />
        </mxCell>
        <mxCell id="tLbkFWNEcpFi5JFSRH8S-77" value="" style="ellipse;whiteSpace=wrap;html=1;aspect=fixed;fontFamily=Garamond;" vertex="1" parent="At87MqKCxzJQ_d1da1c6-92">
          <mxGeometry x="175" y="360" width="10" height="10" as="geometry" />
        </mxCell>
        <mxCell id="tLbkFWNEcpFi5JFSRH8S-78" value="" style="ellipse;whiteSpace=wrap;html=1;aspect=fixed;fontFamily=Garamond;" vertex="1" parent="At87MqKCxzJQ_d1da1c6-92">
          <mxGeometry x="185" y="370" width="10" height="10" as="geometry" />
        </mxCell>
        <mxCell id="tLbkFWNEcpFi5JFSRH8S-79" value="" style="ellipse;whiteSpace=wrap;html=1;aspect=fixed;fontFamily=Garamond;" vertex="1" parent="At87MqKCxzJQ_d1da1c6-92">
          <mxGeometry x="195" y="380" width="10" height="10" as="geometry" />
        </mxCell>
        <mxCell id="tLbkFWNEcpFi5JFSRH8S-80" value="" style="ellipse;whiteSpace=wrap;html=1;aspect=fixed;fontFamily=Garamond;" vertex="1" parent="At87MqKCxzJQ_d1da1c6-92">
          <mxGeometry x="205" y="390" width="10" height="10" as="geometry" />
        </mxCell>
        <mxCell id="tLbkFWNEcpFi5JFSRH8S-81" value="" style="ellipse;whiteSpace=wrap;html=1;aspect=fixed;fontFamily=Garamond;" vertex="1" parent="At87MqKCxzJQ_d1da1c6-92">
          <mxGeometry x="215" y="400" width="10" height="10" as="geometry" />
        </mxCell>
        <mxCell id="tLbkFWNEcpFi5JFSRH8S-82" value="" style="ellipse;whiteSpace=wrap;html=1;aspect=fixed;fontFamily=Garamond;" vertex="1" parent="At87MqKCxzJQ_d1da1c6-92">
          <mxGeometry x="225" y="410" width="10" height="10" as="geometry" />
        </mxCell>
        <mxCell id="tLbkFWNEcpFi5JFSRH8S-83" value="" style="ellipse;whiteSpace=wrap;html=1;aspect=fixed;fontFamily=Garamond;" vertex="1" parent="At87MqKCxzJQ_d1da1c6-92">
          <mxGeometry x="235" y="420" width="10" height="10" as="geometry" />
        </mxCell>
        <mxCell id="tLbkFWNEcpFi5JFSRH8S-84" value="" style="ellipse;whiteSpace=wrap;html=1;aspect=fixed;fontFamily=Garamond;" vertex="1" parent="At87MqKCxzJQ_d1da1c6-92">
          <mxGeometry x="245" y="430" width="10" height="10" as="geometry" />
        </mxCell>
        <mxCell id="tLbkFWNEcpFi5JFSRH8S-85" value="" style="ellipse;whiteSpace=wrap;html=1;aspect=fixed;fontFamily=Garamond;" vertex="1" parent="At87MqKCxzJQ_d1da1c6-92">
          <mxGeometry x="255" y="440" width="10" height="10" as="geometry" />
        </mxCell>
        <mxCell id="tLbkFWNEcpFi5JFSRH8S-86" value="" style="ellipse;whiteSpace=wrap;html=1;aspect=fixed;fontFamily=Garamond;" vertex="1" parent="At87MqKCxzJQ_d1da1c6-92">
          <mxGeometry x="265" y="450" width="10" height="10" as="geometry" />
        </mxCell>
        <mxCell id="tLbkFWNEcpFi5JFSRH8S-87" value="" style="ellipse;whiteSpace=wrap;html=1;aspect=fixed;fontFamily=Garamond;" vertex="1" parent="At87MqKCxzJQ_d1da1c6-92">
          <mxGeometry x="275" y="460" width="10" height="10" as="geometry" />
        </mxCell>
        <mxCell id="tLbkFWNEcpFi5JFSRH8S-88" value="Enemy&lt;div&gt;&lt;span style=&quot;background-color: transparent; color: light-dark(rgb(0, 0, 0), rgb(255, 255, 255));&quot;&gt;Bullets&lt;/span&gt;&lt;/div&gt;" style="text;html=1;align=center;verticalAlign=middle;whiteSpace=wrap;rounded=0;fontFamily=Garamond;" vertex="1" parent="At87MqKCxzJQ_d1da1c6-92">
          <mxGeometry x="150" y="405" width="60" height="30" as="geometry" />
        </mxCell>
        <mxCell id="tLbkFWNEcpFi5JFSRH8S-91" value="&lt;i&gt;&lt;font style=&quot;font-size: 15px;&quot;&gt;(Actual positions of entities will vary during gameplay)&lt;/font&gt;&lt;/i&gt;" style="text;html=1;align=center;verticalAlign=middle;whiteSpace=wrap;rounded=0;fontFamily=Garamond;" vertex="1" parent="At87MqKCxzJQ_d1da1c6-92">
          <mxGeometry x="510" y="490" width="150" height="30" as="geometry" />
        </mxCell>
        <mxCell id="tLbkFWNEcpFi5JFSRH8S-161" value="" style="html=1;whiteSpace=wrap;shape=isoCube2;backgroundOutline=1;isoAngle=15;fontFamily=Verdana;fontSize=12;fontColor=default;labelBackgroundColor=none;" vertex="1" parent="At87MqKCxzJQ_d1da1c6-92">
          <mxGeometry x="97.5" y="520" width="50" height="55" as="geometry" />
        </mxCell>
        <mxCell id="tLbkFWNEcpFi5JFSRH8S-162" value="Item/Power up" style="text;html=1;align=center;verticalAlign=middle;whiteSpace=wrap;rounded=0;fontFamily=Garamond;" vertex="1" parent="At87MqKCxzJQ_d1da1c6-92">
          <mxGeometry x="85" y="580" width="75" height="30" as="geometry" />
        </mxCell>
        <mxCell id="At87MqKCxzJQ_d1da1c6-93" value="" style="swimlane;startSize=0;rounded=0;shadow=0;comic=1;strokeColor=default;strokeWidth=1;align=center;verticalAlign=middle;fontFamily=Garamond;fontSize=12;fontColor=default;labelBackgroundColor=none;fillColor=none;" parent="At87MqKCxzJQ_d1da1c6-84" vertex="1">
          <mxGeometry x="724" width="300" height="720" as="geometry" />
        </mxCell>
        <mxCell id="tLbkFWNEcpFi5JFSRH8S-176" value="" style="rounded=0;whiteSpace=wrap;html=1;fontFamily=Verdana;fontSize=12;fontColor=default;labelBackgroundColor=none;" vertex="1" parent="At87MqKCxzJQ_d1da1c6-93">
          <mxGeometry width="300" height="720" as="geometry" />
        </mxCell>
        <mxCell id="tLbkFWNEcpFi5JFSRH8S-178" value="" style="ellipse;whiteSpace=wrap;html=1;aspect=fixed;fillColor=#000000;fontFamily=Verdana;fontSize=12;fontColor=default;labelBackgroundColor=none;" vertex="1" parent="At87MqKCxzJQ_d1da1c6-93">
          <mxGeometry x="70" y="180" width="80" height="80" as="geometry" />
        </mxCell>
        <mxCell id="At87MqKCxzJQ_d1da1c6-55" value="HP:" style="whiteSpace=wrap;html=1;rounded=0;shadow=1;labelBackgroundColor=none;strokeWidth=1;fillColor=default;fontFamily=Garamond;fontSize=20;align=left;comic=1;" parent="At87MqKCxzJQ_d1da1c6-93" vertex="1">
          <mxGeometry x="10" y="320" width="280" height="40" as="geometry" />
        </mxCell>
        <mxCell id="tLbkFWNEcpFi5JFSRH8S-90" value="Bombs:" style="whiteSpace=wrap;html=1;rounded=0;shadow=1;labelBackgroundColor=none;strokeWidth=1;fillColor=default;fontFamily=Garamond;fontSize=20;align=left;comic=1;" vertex="1" parent="At87MqKCxzJQ_d1da1c6-93">
          <mxGeometry x="10" y="375" width="280" height="40" as="geometry" />
        </mxCell>
        <mxCell id="tLbkFWNEcpFi5JFSRH8S-92" value="Highscore: XXXXXXXXX" style="whiteSpace=wrap;html=1;rounded=0;shadow=1;labelBackgroundColor=none;strokeWidth=1;fillColor=default;fontFamily=Garamond;fontSize=20;align=left;comic=1;" vertex="1" parent="At87MqKCxzJQ_d1da1c6-93">
          <mxGeometry x="10" y="200" width="280" height="40" as="geometry" />
        </mxCell>
        <mxCell id="tLbkFWNEcpFi5JFSRH8S-101" value="Score: XXXXXXXXXX" style="whiteSpace=wrap;html=1;rounded=0;shadow=1;labelBackgroundColor=none;strokeWidth=1;fillColor=default;fontFamily=Garamond;fontSize=20;align=left;comic=1;" vertex="1" parent="At87MqKCxzJQ_d1da1c6-93">
          <mxGeometry x="10" y="260" width="280" height="40" as="geometry" />
        </mxCell>
        <mxCell id="tLbkFWNEcpFi5JFSRH8S-102" value="" style="shape=cross;whiteSpace=wrap;html=1;fontFamily=Verdana;fontSize=12;fontColor=default;labelBackgroundColor=none;size=0.3439175257731904;" vertex="1" parent="At87MqKCxzJQ_d1da1c6-93">
          <mxGeometry x="60" y="327.5" width="25" height="25" as="geometry" />
        </mxCell>
        <mxCell id="tLbkFWNEcpFi5JFSRH8S-103" value="" style="shape=cross;whiteSpace=wrap;html=1;fontFamily=Verdana;fontSize=12;fontColor=default;labelBackgroundColor=none;size=0.3439175257731904;" vertex="1" parent="At87MqKCxzJQ_d1da1c6-93">
          <mxGeometry x="90" y="327.5" width="25" height="25" as="geometry" />
        </mxCell>
        <mxCell id="tLbkFWNEcpFi5JFSRH8S-104" value="" style="shape=cross;whiteSpace=wrap;html=1;fontFamily=Verdana;fontSize=12;fontColor=default;labelBackgroundColor=none;size=0.3439175257731904;" vertex="1" parent="At87MqKCxzJQ_d1da1c6-93">
          <mxGeometry x="120" y="327.5" width="25" height="25" as="geometry" />
        </mxCell>
        <mxCell id="tLbkFWNEcpFi5JFSRH8S-105" value="" style="shape=cross;whiteSpace=wrap;html=1;fontFamily=Verdana;fontSize=12;fontColor=default;labelBackgroundColor=none;size=0.3439175257731904;" vertex="1" parent="At87MqKCxzJQ_d1da1c6-93">
          <mxGeometry x="149.5" y="327.5" width="25" height="25" as="geometry" />
        </mxCell>
        <mxCell id="tLbkFWNEcpFi5JFSRH8S-106" value="" style="shape=cross;whiteSpace=wrap;html=1;fontFamily=Verdana;fontSize=12;fontColor=default;labelBackgroundColor=none;size=0.3439175257731904;" vertex="1" parent="At87MqKCxzJQ_d1da1c6-93">
          <mxGeometry x="180" y="327.5" width="25" height="25" as="geometry" />
        </mxCell>
        <mxCell id="tLbkFWNEcpFi5JFSRH8S-107" value="" style="shape=cross;whiteSpace=wrap;html=1;fontFamily=Verdana;fontSize=12;fontColor=default;labelBackgroundColor=none;size=0.3439175257731904;" vertex="1" parent="At87MqKCxzJQ_d1da1c6-93">
          <mxGeometry x="210" y="327.5" width="25" height="25" as="geometry" />
        </mxCell>
        <mxCell id="tLbkFWNEcpFi5JFSRH8S-108" value="" style="shape=cross;whiteSpace=wrap;html=1;fontFamily=Verdana;fontSize=12;fontColor=default;labelBackgroundColor=none;size=0.3439175257731904;" vertex="1" parent="At87MqKCxzJQ_d1da1c6-93">
          <mxGeometry x="240" y="327.5" width="25" height="25" as="geometry" />
        </mxCell>
        <mxCell id="tLbkFWNEcpFi5JFSRH8S-112" value="" style="verticalLabelPosition=bottom;verticalAlign=top;html=1;shape=mxgraph.basic.wave2;dy=0.67;fontFamily=Verdana;fontSize=12;fontColor=default;labelBackgroundColor=none;rotation=-70;" vertex="1" parent="At87MqKCxzJQ_d1da1c6-93">
          <mxGeometry x="90" y="382.49999999999994" width="15" height="15" as="geometry" />
        </mxCell>
        <mxCell id="tLbkFWNEcpFi5JFSRH8S-113" value="" style="ellipse;whiteSpace=wrap;html=1;aspect=fixed;fontFamily=Verdana;fontSize=12;fontColor=default;labelBackgroundColor=none;" vertex="1" parent="At87MqKCxzJQ_d1da1c6-93">
          <mxGeometry x="85" y="392.4999999999999" width="15" height="15" as="geometry" />
        </mxCell>
        <mxCell id="tLbkFWNEcpFi5JFSRH8S-114" value="" style="verticalLabelPosition=bottom;verticalAlign=top;html=1;shape=mxgraph.basic.wave2;dy=0.67;fontFamily=Verdana;fontSize=12;fontColor=default;labelBackgroundColor=none;rotation=-70;" vertex="1" parent="At87MqKCxzJQ_d1da1c6-93">
          <mxGeometry x="120" y="382.49999999999994" width="15" height="15" as="geometry" />
        </mxCell>
        <mxCell id="tLbkFWNEcpFi5JFSRH8S-115" value="" style="ellipse;whiteSpace=wrap;html=1;aspect=fixed;fontFamily=Verdana;fontSize=12;fontColor=default;labelBackgroundColor=none;" vertex="1" parent="At87MqKCxzJQ_d1da1c6-93">
          <mxGeometry x="115" y="392.4999999999999" width="15" height="15" as="geometry" />
        </mxCell>
        <mxCell id="tLbkFWNEcpFi5JFSRH8S-116" value="" style="verticalLabelPosition=bottom;verticalAlign=top;html=1;shape=mxgraph.basic.wave2;dy=0.67;fontFamily=Verdana;fontSize=12;fontColor=default;labelBackgroundColor=none;rotation=-70;" vertex="1" parent="At87MqKCxzJQ_d1da1c6-93">
          <mxGeometry x="150" y="382.49999999999994" width="15" height="15" as="geometry" />
        </mxCell>
        <mxCell id="tLbkFWNEcpFi5JFSRH8S-117" value="" style="ellipse;whiteSpace=wrap;html=1;aspect=fixed;fontFamily=Verdana;fontSize=12;fontColor=default;labelBackgroundColor=none;" vertex="1" parent="At87MqKCxzJQ_d1da1c6-93">
          <mxGeometry x="145" y="392.4999999999999" width="15" height="15" as="geometry" />
        </mxCell>
        <mxCell id="tLbkFWNEcpFi5JFSRH8S-118" value="" style="verticalLabelPosition=bottom;verticalAlign=top;html=1;shape=mxgraph.basic.wave2;dy=0.67;fontFamily=Verdana;fontSize=12;fontColor=default;labelBackgroundColor=none;rotation=-70;" vertex="1" parent="At87MqKCxzJQ_d1da1c6-93">
          <mxGeometry x="179.5" y="382.49999999999994" width="15" height="15" as="geometry" />
        </mxCell>
        <mxCell id="tLbkFWNEcpFi5JFSRH8S-119" value="" style="ellipse;whiteSpace=wrap;html=1;aspect=fixed;fontFamily=Verdana;fontSize=12;fontColor=default;labelBackgroundColor=none;" vertex="1" parent="At87MqKCxzJQ_d1da1c6-93">
          <mxGeometry x="174.5" y="392.4999999999999" width="15" height="15" as="geometry" />
        </mxCell>
        <mxCell id="tLbkFWNEcpFi5JFSRH8S-120" value="" style="verticalLabelPosition=bottom;verticalAlign=top;html=1;shape=mxgraph.basic.wave2;dy=0.67;fontFamily=Verdana;fontSize=12;fontColor=default;labelBackgroundColor=none;rotation=-70;" vertex="1" parent="At87MqKCxzJQ_d1da1c6-93">
          <mxGeometry x="210" y="382.49999999999994" width="15" height="15" as="geometry" />
        </mxCell>
        <mxCell id="tLbkFWNEcpFi5JFSRH8S-121" value="" style="ellipse;whiteSpace=wrap;html=1;aspect=fixed;fontFamily=Verdana;fontSize=12;fontColor=default;labelBackgroundColor=none;" vertex="1" parent="At87MqKCxzJQ_d1da1c6-93">
          <mxGeometry x="205" y="392.4999999999999" width="15" height="15" as="geometry" />
        </mxCell>
        <mxCell id="tLbkFWNEcpFi5JFSRH8S-122" value="" style="verticalLabelPosition=bottom;verticalAlign=top;html=1;shape=mxgraph.basic.wave2;dy=0.67;fontFamily=Verdana;fontSize=12;fontColor=default;labelBackgroundColor=none;rotation=-70;" vertex="1" parent="At87MqKCxzJQ_d1da1c6-93">
          <mxGeometry x="240" y="382.49999999999994" width="15" height="15" as="geometry" />
        </mxCell>
        <mxCell id="tLbkFWNEcpFi5JFSRH8S-123" value="" style="ellipse;whiteSpace=wrap;html=1;aspect=fixed;fontFamily=Verdana;fontSize=12;fontColor=default;labelBackgroundColor=none;" vertex="1" parent="At87MqKCxzJQ_d1da1c6-93">
          <mxGeometry x="235" y="392.4999999999999" width="15" height="15" as="geometry" />
        </mxCell>
        <mxCell id="tLbkFWNEcpFi5JFSRH8S-177" value="" style="curved=1;endArrow=none;html=1;rounded=0;strokeWidth=5;startFill=0;exitX=0;exitY=1;exitDx=0;exitDy=0;entryX=0.5;entryY=1;entryDx=0;entryDy=0;shadow=1;strokeColor=default;align=center;verticalAlign=middle;fontFamily=Verdana;fontSize=12;fontColor=default;labelBackgroundColor=none;edgeStyle=orthogonalEdgeStyle;elbow=vertical;endSize=10;" edge="1" source="tLbkFWNEcpFi5JFSRH8S-176" target="At87MqKCxzJQ_d1da1c6-93" parent="At87MqKCxzJQ_d1da1c6-93">
          <mxGeometry width="50" height="50" relative="1" as="geometry">
            <mxPoint x="-350" y="-260" as="sourcePoint" />
            <mxPoint x="-300" y="-310" as="targetPoint" />
            <Array as="points">
              <mxPoint x="30" y="720" />
              <mxPoint x="30" y="430" />
              <mxPoint x="151" y="430" />
            </Array>
          </mxGeometry>
        </mxCell>
        <mxCell id="tLbkFWNEcpFi5JFSRH8S-181" value="" style="curved=1;endArrow=none;html=1;rounded=0;strokeWidth=5;startFill=0;entryX=1;entryY=1;entryDx=0;entryDy=0;shadow=1;strokeColor=default;align=center;verticalAlign=middle;fontFamily=Verdana;fontSize=12;fontColor=default;labelBackgroundColor=none;edgeStyle=orthogonalEdgeStyle;elbow=vertical;endSize=10;" edge="1" parent="At87MqKCxzJQ_d1da1c6-93" target="At87MqKCxzJQ_d1da1c6-93">
          <mxGeometry width="50" height="50" relative="1" as="geometry">
            <mxPoint x="142" y="610" as="sourcePoint" />
            <mxPoint x="322" y="720" as="targetPoint" />
            <Array as="points">
              <mxPoint x="142" y="440" />
              <mxPoint x="302" y="440" />
            </Array>
          </mxGeometry>
        </mxCell>
        <mxCell id="tLbkFWNEcpFi5JFSRH8S-160" value="&lt;span style=&quot;font-family: Garamond; font-size: 20px;&quot;&gt;Controls:&lt;/span&gt;&lt;div style=&quot;font-family: Garamond; font-size: 20px;&quot;&gt;&amp;nbsp; &amp;nbsp; - WASD or arrow keys to move&lt;br&gt;&lt;/div&gt;&lt;div style=&quot;font-family: Garamond; font-size: 20px;&quot;&gt;&amp;nbsp; &amp;nbsp; - Space to use a bomb&amp;nbsp;&lt;/div&gt;&lt;div style=&quot;font-family: Garamond; font-size: 20px;&quot;&gt;&amp;nbsp; &amp;nbsp; &amp;nbsp; (destroys all enemy bullets on&amp;nbsp; &amp;nbsp; &amp;nbsp; &amp;nbsp; &amp;nbsp; &amp;nbsp; screen)&lt;br&gt;&lt;/div&gt;&lt;div style=&quot;font-family: Garamond; font-size: 20px;&quot;&gt;&lt;br&gt;&lt;/div&gt;&lt;div style=&quot;font-family: Garamond; font-size: 20px;&quot;&gt;Goal:&lt;/div&gt;&lt;div style=&quot;font-family: Garamond; font-size: 20px;&quot;&gt;&lt;span style=&quot;background-color: transparent; color: light-dark(rgb(0, 0, 0), rgb(255, 255, 255));&quot;&gt;&amp;nbsp; &amp;nbsp; - Survive (dodge bullets) for as&lt;/span&gt;&lt;/div&gt;&lt;div style=&quot;font-family: Garamond; font-size: 20px;&quot;&gt;&lt;span style=&quot;background-color: transparent; color: light-dark(rgb(0, 0, 0), rgb(255, 255, 255));&quot;&gt;&amp;nbsp; &amp;nbsp; &amp;nbsp; long as you can.&amp;nbsp;&lt;/span&gt;&lt;span style=&quot;background-color: transparent; color: light-dark(rgb(0, 0, 0), rgb(255, 255, 255));&quot;&gt;Game ends&lt;/span&gt;&lt;/div&gt;&lt;div style=&quot;font-family: Garamond; font-size: 20px;&quot;&gt;&lt;span style=&quot;background-color: transparent; color: light-dark(rgb(0, 0, 0), rgb(255, 255, 255));&quot;&gt;&amp;nbsp; &amp;nbsp; &amp;nbsp; when you die.&lt;/span&gt;&lt;/div&gt;" style="text;html=1;align=left;verticalAlign=middle;whiteSpace=wrap;rounded=0;fontFamily=Verdana;fontSize=12;fontColor=default;labelBackgroundColor=none;fillColor=default;strokeColor=default;" vertex="1" parent="At87MqKCxzJQ_d1da1c6-93">
          <mxGeometry x="10" y="460" width="280" height="240" as="geometry" />
        </mxCell>
        <mxCell id="tLbkFWNEcpFi5JFSRH8S-21" value="(Pause)" style="labelPosition=center;verticalLabelPosition=middle;align=center;html=1;shape=mxgraph.basic.button;dx=4.47;whiteSpace=wrap;shadow=1;fontFamily=Garamond;fontSize=20;" vertex="1" parent="At87MqKCxzJQ_d1da1c6-93">
          <mxGeometry x="216" y="20" width="64" height="64" as="geometry" />
        </mxCell>
        <mxCell id="At87MqKCxzJQ_d1da1c6-54" value="HH:MM.SS" style="whiteSpace=wrap;html=1;rounded=0;shadow=1;labelBackgroundColor=none;strokeWidth=1;fillColor=default;fontFamily=Garamond;fontSize=20;align=center;comic=1;" parent="At87MqKCxzJQ_d1da1c6-93" vertex="1">
          <mxGeometry x="10" y="70" width="100" height="40" as="geometry" />
        </mxCell>
        <mxCell id="At87MqKCxzJQ_d1da1c6-53" value="Wave &amp;lt;Wave No.&amp;gt;" style="whiteSpace=wrap;html=1;rounded=0;shadow=1;labelBackgroundColor=none;strokeWidth=1;fillColor=default;fontFamily=Garamond;fontSize=20;align=center;comic=1;" parent="At87MqKCxzJQ_d1da1c6-93" vertex="1">
          <mxGeometry x="10" y="20" width="160" height="40" as="geometry" />
        </mxCell>
        <mxCell id="At87MqKCxzJQ_d1da1c6-56" value="Gameplay Screen" style="shape=note;whiteSpace=wrap;html=1;backgroundOutline=1;fontColor=#000000;darkOpacity=0.05;fillColor=#FFF9B2;strokeColor=none;fillStyle=solid;direction=west;gradientDirection=north;gradientColor=#FFF2A1;shadow=1;size=20;pointerEvents=1;fontFamily=Garamond;" parent="1" vertex="1">
          <mxGeometry x="282" y="-827" width="130" height="55" as="geometry" />
        </mxCell>
        <mxCell id="At87MqKCxzJQ_d1da1c6-101" value="" style="swimlane;startSize=0;rounded=0;shadow=0;comic=1;strokeColor=default;strokeWidth=1;align=center;verticalAlign=middle;fontFamily=Garamond;fontSize=12;fontColor=default;labelBackgroundColor=none;fillColor=none;" parent="1" vertex="1">
          <mxGeometry x="882" y="-334.5" width="190" height="200" as="geometry" />
        </mxCell>
        <mxCell id="At87MqKCxzJQ_d1da1c6-105" value="&lt;font style=&quot;font-size: 20px;&quot;&gt;&lt;b&gt;GAME OVER&lt;/b&gt;&lt;/font&gt;&lt;div&gt;You scored &amp;lt;%d&amp;gt; points!&lt;/div&gt;&lt;div&gt;Time lasted: xx:xx.xx&lt;/div&gt;" style="text;html=1;align=center;verticalAlign=middle;whiteSpace=wrap;rounded=0;shadow=1;fontFamily=Garamond;" parent="At87MqKCxzJQ_d1da1c6-101" vertex="1">
          <mxGeometry x="15" y="20" width="160" height="50" as="geometry" />
        </mxCell>
        <mxCell id="tLbkFWNEcpFi5JFSRH8S-128" value="PLAY AGAIN" style="labelPosition=center;verticalLabelPosition=middle;align=center;html=1;shape=mxgraph.basic.button;dx=4.47;whiteSpace=wrap;shadow=1;fontStyle=1;fontFamily=Garamond;fontSize=20;" vertex="1" parent="At87MqKCxzJQ_d1da1c6-101">
          <mxGeometry x="20" y="90" width="150" height="40" as="geometry" />
        </mxCell>
        <mxCell id="tLbkFWNEcpFi5JFSRH8S-129" value="QUIT" style="labelPosition=center;verticalLabelPosition=middle;align=center;html=1;shape=mxgraph.basic.button;dx=4.47;whiteSpace=wrap;shadow=1;fontStyle=1;fontFamily=Garamond;fontSize=20;" vertex="1" parent="At87MqKCxzJQ_d1da1c6-101">
          <mxGeometry x="20" y="140" width="150" height="40" as="geometry" />
        </mxCell>
        <mxCell id="8650wfay4DL9xMlQ2IgJ-3" value="" style="swimlane;startSize=0;rounded=0;shadow=0;comic=1;strokeColor=default;strokeWidth=1;align=center;verticalAlign=middle;fontFamily=Garamond;fontSize=12;fontColor=default;labelBackgroundColor=none;fillColor=none;" parent="1" vertex="1">
          <mxGeometry x="882" y="-764.5" width="160" height="270" as="geometry" />
        </mxCell>
        <mxCell id="8650wfay4DL9xMlQ2IgJ-7" value="&lt;font&gt;&lt;b&gt;PAUSE&lt;/b&gt;&lt;/font&gt;" style="text;html=1;align=center;verticalAlign=middle;whiteSpace=wrap;rounded=0;shadow=1;fontSize=20;fontFamily=Garamond;" parent="8650wfay4DL9xMlQ2IgJ-3" vertex="1">
          <mxGeometry x="40" y="20" width="80" height="20" as="geometry" />
        </mxCell>
        <mxCell id="tLbkFWNEcpFi5JFSRH8S-96" value="RESUME" style="labelPosition=center;verticalLabelPosition=middle;align=center;html=1;shape=mxgraph.basic.button;dx=4.47;whiteSpace=wrap;shadow=1;fontStyle=1;fontFamily=Garamond;fontSize=20;" vertex="1" parent="8650wfay4DL9xMlQ2IgJ-3">
          <mxGeometry x="20" y="60" width="120" height="40" as="geometry" />
        </mxCell>
        <mxCell id="tLbkFWNEcpFi5JFSRH8S-97" value="SETTINGS" style="labelPosition=center;verticalLabelPosition=middle;align=center;html=1;shape=mxgraph.basic.button;dx=4.47;whiteSpace=wrap;shadow=1;fontStyle=1;fontFamily=Garamond;fontSize=20;" vertex="1" parent="8650wfay4DL9xMlQ2IgJ-3">
          <mxGeometry x="20" y="110" width="120" height="40" as="geometry" />
        </mxCell>
        <mxCell id="tLbkFWNEcpFi5JFSRH8S-98" value="RESTART" style="labelPosition=center;verticalLabelPosition=middle;align=center;html=1;shape=mxgraph.basic.button;dx=4.47;whiteSpace=wrap;shadow=1;fontStyle=1;fontFamily=Garamond;fontSize=20;" vertex="1" parent="8650wfay4DL9xMlQ2IgJ-3">
          <mxGeometry x="20" y="160" width="120" height="40" as="geometry" />
        </mxCell>
        <mxCell id="tLbkFWNEcpFi5JFSRH8S-100" value="QUIT" style="labelPosition=center;verticalLabelPosition=middle;align=center;html=1;shape=mxgraph.basic.button;dx=4.47;whiteSpace=wrap;shadow=1;fontStyle=1;fontFamily=Garamond;fontSize=20;" vertex="1" parent="8650wfay4DL9xMlQ2IgJ-3">
          <mxGeometry x="20" y="210" width="120" height="40" as="geometry" />
        </mxCell>
        <mxCell id="tLbkFWNEcpFi5JFSRH8S-93" value="Pause Dialogue" style="shape=note;whiteSpace=wrap;html=1;backgroundOutline=1;fontColor=#000000;darkOpacity=0.05;fillColor=#FFF9B2;strokeColor=none;fillStyle=solid;direction=west;gradientDirection=north;gradientColor=#FFF2A1;shadow=1;size=20;pointerEvents=1;fontFamily=Garamond;" vertex="1" parent="1">
          <mxGeometry x="892" y="-824.5" width="130" height="50" as="geometry" />
        </mxCell>
        <mxCell id="tLbkFWNEcpFi5JFSRH8S-95" style="edgeStyle=orthogonalEdgeStyle;shape=connector;curved=1;rounded=0;orthogonalLoop=1;jettySize=auto;html=1;shadow=1;dashed=1;strokeColor=default;align=center;verticalAlign=middle;fontFamily=Garamond;fontSize=12;fontColor=default;labelBackgroundColor=none;elbow=vertical;endArrow=classic;endSize=10;" edge="1" parent="1" source="tLbkFWNEcpFi5JFSRH8S-21" target="8650wfay4DL9xMlQ2IgJ-3">
          <mxGeometry relative="1" as="geometry" />
        </mxCell>
      </root>
    </mxGraphModel>
  </diagram>
</mxfile>
